# xmcd
#
# Track frame offsets: 
#        150
#        10195
#        21905
#        33165
#        42257
#        54612
#        65397
#        80955
#        94167
#        105102
#        114437
#        125375
#        138595
#        149212
#
# Disc length: 2092 seconds
#
# Revision: 1
# Processed by: cddbd v1.5.2PL0 Copyright (c) Steve Scherf et al.
# Submitted via: ExactAudioCopy v0.99pb5
#
DISCID=c0082a0e
DTITLE=Lúcio Alves - pure bossa nova
DYEAR=2005
DGENRE=Bossa-Nova
TTITLE0=Cheiro de saudade
TTITLE1=Samba triste
TTITLE2=Ah! Se eu pudesse
TTITLE3=Menina feia
TTITLE4=Ela e carioca
TTITLE5=Moca da praia
TTITLE6=Nos e o mar
TTITLE7=O amor e a rosa
TTITLE8=O nosso olhar
TTITLE9=Na minha palhoca
TTITLE10=Errinho a toa
TTITLE11=Dindi
TTITLE12=O samba da minha terra
TTITLE13=Baiazinho
EXTD=YEAR: 2005
EXTT0=
EXTT1=
EXTT2=
EXTT3=
EXTT4=
EXTT5=
EXTT6=
EXTT7=
EXTT8=
EXTT9=
EXTT10=
EXTT11=
EXTT12=
EXTT13=
PLAYORDER=
